<?xml version="1.0" encoding="UTF-8"?>
<svg id="Calque_2" data-name="Calque 2" xmlns="http://www.w3.org/2000/svg" viewBox="0 0 512 248.8">
  <g id="Calque_1-2" data-name="Calque 1">
    <g>
      <path d="M19.22,0h473.56c10.61,0,19.22,8.61,19.22,19.22v229.58H0V19.22C0,8.61,8.61,0,19.22,0Z" style="fill: #cce8fa;"/>
      <g>
        <path d="M198.35,132.78v51.43l27.89,15.33v-34.14c0-.35.28-.63.63-.63s.63.28.63.63v34.13l27.87-15.32v-27.8h-19.2c-.35,0-.63-.28-.63-.63s.28-.63.63-.63h19.2v-22.37l-28.51-15.67-28.51,15.67h0ZM227.5,128.2v23.71c0,.35-.28.63-.63.63s-.63-.28-.63-.63v-23.71c0-.35.28-.63.63-.63s.63.28.63.63h0Z" style="fill: #fff;"/>
        <path d="M226.23,64.59l-28.51-15.67-28.51,15.67v24.87l28.21-15.5h0s.06-.03.09-.04c0,0,.02,0,.03-.01.03,0,.06-.01.09-.02h.16s.06,0,.08.02h.04s.04.01.06.02c.02,0,.04.02.06.03h0l9.69,5.33c.31.17.42.55.25.86-.11.21-.33.33-.55.33-.1,0-.21-.03-.3-.08l-9.39-5.16-28.51,15.67v25.12l28.51,15.67,28.51-15.67v-51.43h0ZM198.35,117.13c0,.35-.28.63-.63.63s-.63-.28-.63-.63v-23.71c0-.35.28-.63.63-.63s.63.28.63.63v23.71Z" style="fill: #fff;"/>
        <path d="M284.51,90.09h0v-25.5l-20.72-11.39v37.69c0,.35-.28.63-.63.63s-.63-.28-.63-.63v-38.38l-6.52-3.59-28.51,15.67v51.43l17.93,9.86v-34.71c0-.35.28-.63.63-.63s.63.28.63.63v35.4l9.31,5.12,28.51-15.67v-25.93h0Z" style="fill: #fff;"/>
        <path d="M81.78,132.78v51.43l28.51,15.67,27.83-15.3-28.14-15.46c-.31-.17-.42-.55-.25-.86s.55-.42.86-.25l28.21,15.5v-50.74l-28.51-15.67-28.51,15.67h0ZM117.01,132.41c0-.35.28-.63.63-.63s.63.28.63.63v23.71c0,.35-.28.63-.63.63s-.63-.28-.63-.63v-23.71Z" style="fill: #fff;"/>
        <path d="M167.94,90.9l-27.88-15.32v31.72c0,.22-.12.43-.31.54-.1.06-.21.09-.32.09-.1,0-.21-.03-.3-.08l-28.21-15.5v23.67l28.51,15.67,28.51-15.67v-25.12h0Z" style="fill: #fff;"/>
        <path d="M256.63,132.78v51.43l27.89,15.33v-34.14c0-.35.28-.63.63-.63s.63.28.63.63v34.13l27.86-15.32v-27.8h-19.24c-.35,0-.63-.28-.63-.63s.28-.63.63-.63h19.24v-22.37l-28.51-15.67-28.51,15.67h.01ZM285.74,128.2v23.71c0,.35-.28.63-.63.63s-.63-.28-.63-.63v-23.71c0-.35.28-.63.63-.63s.63.28.63.63h0Z" style="fill: #fff;"/>
        <path d="M140.06,132.78v51.43l28.51,15.67,28.51-15.67v-25.68l-28.21,15.5s-.06.02-.09.04c-.02,0-.03.02-.05.02-.05,0-.11.02-.16.02h0c-.05,0-.11,0-.16-.02-.02,0-.04-.02-.06-.02-.03,0-.06-.02-.09-.03l-13.1-7.2c-.31-.17-.42-.55-.25-.86s.55-.42.86-.25l12.8,7.03,28.51-15.67v-24.31l-28.51-15.67-28.51,15.67ZM169.21,132.41v23.71c0,.35-.28.63-.63.63s-.63-.28-.63-.63v-23.71c0-.35.28-.63.63-.63s.63.28.63.63Z" style="fill: #fff;"/>
        <path d="M138.8,74.51c0-.22.12-.43.31-.54s.43-.12.63,0l28.21,15.5v-24.87l-28.51-15.67-28.51,15.67v26.32l27.88,15.32v-31.72h-.01Z" style="fill: #fff;"/>
        <path d="M401.08,78.34v-13.76l-27.88-15.32v27.75c0,.35-.28.63-.63.63s-.63-.28-.63-.63v-27.75l-27.83,15.3v13.81l28.46,15.64,28.51-15.67Z" style="fill: #fff;"/>
        <path d="M401.98,149.2s-.04.02-.06.02c-.05,0-.11.02-.16.02h0s-.11,0-.16-.02c-.02,0-.04-.02-.06-.02-.03,0-.06-.02-.09-.03l-28.26-15.53v49.65l18.03-9.91v-17.83c0-.35.28-.63.63-.63s.63.28.63.63v18.28s0,.05-.01.07c0,0,0,.03-.01.04,0,.02-.02.05-.03.07,0,0-.01.03-.02.04-.01.02-.02.04-.04.06-.01,0-.02.03-.03.04-.01.02-.03.03-.05.05-.01,0-.03.02-.04.04-.02,0-.04.03-.06.04,0,0-.01,0-.02.02l-18.49,10.16,28.04,15.41,28.04-15.41-18.49-10.16s-.01,0-.02,0c-.02,0-.04-.03-.06-.04-.01,0-.02-.02-.03-.03-.02-.02-.04-.04-.06-.06,0,0-.02-.02-.03-.03-.02-.02-.03-.05-.05-.07,0,0-.01-.02-.02-.03-.01-.03-.02-.06-.03-.08v-.03s-.01-.06-.02-.09v-18.27c0-.35.28-.63.63-.63s.63.28.63.63v17.83l18.03,9.91v-49.6l-28.15,15.47s-.06.02-.09.03h-.02Z" style="fill: #fff;"/>
        <path d="M314.92,132.78v51.43l28.51,15.67,28.51-15.67v-51.43l-28.46-15.64-28.56,15.64h0ZM344.06,132.41v47.54c0,.35-.28.63-.63.63s-.63-.28-.63-.63v-47.54c0-.35.28-.63.63-.63s.63.28.63.63Z" style="fill: #fff;"/>
        <path d="M401.08,79.78l-27.88,15.32v23.8c0,.35-.28.63-.63.63s-.63-.28-.63-.63v-23.8l-27.83-15.3v36.23l28.46,15.64,28.51-15.67v-36.23h0Z" style="fill: #fff;"/>
        <polygon points="316.27 102.45 337.07 90.85 316.27 79.59 316.27 102.45" style="fill: #cbe7f9;"/>
        <polygon points="401.76 147.89 429.74 132.52 401.71 117.11 373.73 132.49 401.76 147.89" style="fill: #fff;"/>
        <path d="M342.84,78.95c-.06-.14-.06-.31,0-.46v-13.64l-28.51-15.67-28.55,15.41v24.86h29.23v-11.03s0-.04.01-.06c0-.02.01-.04.02-.06,0-.02.02-.04.03-.06,0,0,0-.02.01-.03,0,0,.01-.01.02-.02.01-.02.03-.04.04-.06s.02-.03.04-.04c.01-.02.03-.03.05-.04.01-.01.03-.03.05-.04s.04-.02.05-.03c.02,0,.03-.02.05-.03.02,0,.04-.02.06-.02s.04-.01.05-.02c.02,0,.04,0,.06-.01h.18s.04,0,.06.01c.02,0,.04.01.06.02.02,0,.04.02.06.03,0,0,.02,0,.03.01l22.74,12.32s.03.02.04.03c.02.01.03.02.05.03.02.02.04.03.05.05.01.01.02.02.04.04.02.02.03.04.05.07,0,0,.01.02.02.03h0s.02.05.03.08c0,.01.01.03.02.04,0,.02.01.05.01.07v.17s0,.04-.01.06c0,.02,0,.04-.01.06,0,.01-.01.03-.02.04,0,.02-.02.05-.03.07h-.01c-.02.05-.05.08-.08.12,0,.01-.02.02-.03.03-.03.03-.06.05-.1.08,0,0-.02.01-.02.02h0l-22.74,12.68h-.02s-.07.03-.1.04c-.01,0-.03,0-.04.01-.04.01-.09.02-.13.02h0s-.1,0-.14-.02c-.01,0-.03,0-.04-.01-.04-.01-.07-.03-.1-.04-.01,0-.03-.01-.04-.02-.04-.03-.08-.06-.12-.09h0l-.09-.12h-.01s0-.03-.01-.04c-.01-.02-.02-.04-.03-.06,0-.02-.01-.04-.02-.06,0-.02,0-.04-.01-.06v-12.91h-29.23v25.3l28.51,15.67,28.56-15.64v-37.1l-.04.02Z" style="fill: #fff;"/>
        <path d="M431.13,131.85l-28.81-15.84v-51.8c0-.23-.13-.44-.33-.55l-29.14-16.02h0s-.04-.02-.06-.03c-.02,0-.04-.02-.05-.02h-.05s-.05,0-.07,0h-.16s-.05,0-.08.02c-.02,0-.03,0-.04.02-.02,0-.05.02-.07.03h0l-29.05,15.97-28.58-15.71c-.19-.1-.42-.1-.6,0l-28.88,15.59-28.84-15.85h0s-.04-.02-.07-.03c-.02,0-.03-.02-.05-.02h-.05s-.05,0-.07,0h-.15s-.06,0-.09.02c0,0-.02,0-.03,0-.03,0-.06.02-.08.04h0l-28.84,15.85-28.84-15.85h0s-.04-.02-.06-.03c-.02,0-.04-.02-.05-.02h-.04s-.05,0-.08,0h-.15s-.06,0-.09.02c0,0-.02,0-.03,0-.03,0-.06.02-.08.04h0l-28.84,15.85-28.84-15.85h0s-.04-.02-.06-.03c-.02,0-.04-.02-.05-.02h-.04s-.05,0-.08-.02h-.16s-.06,0-.08.02c0,0-.02,0-.03,0-.03,0-.06.02-.08.03h0l-29.14,16.02c-.2.11-.33.32-.33.55v51.8l-28.81,15.84s-.01,0-.02.02c-.02,0-.04.02-.06.04-.02,0-.03.02-.05.04-.02,0-.03.03-.04.04-.01.02-.03.03-.04.05s-.02.03-.03.05-.02.03-.03.05c0,.02-.02.04-.02.06s-.01.04-.02.06c0,.02,0,.04-.01.06v52.28c0,.23.13.44.33.55l29.14,16.02s.06.02.09.03c.02,0,.04.02.06.02.05,0,.11.02.16.02h0c.05,0,.11,0,.16-.02.02,0,.04,0,.05-.02.03,0,.06-.02.09-.04l28.84-15.85,28.84,15.85s.06.02.09.03c.02,0,.04.02.06.02.05,0,.11.02.16.02h0c.05,0,.11,0,.16-.02.02,0,.04,0,.05-.02.03,0,.06-.02.09-.04l28.84-15.85,28.84,15.85s.03,0,.05.02c0,0,.03,0,.04.02.02,0,.03.02.05.02h.03s.06,0,.09,0h.04c.05,0,.11,0,.16-.02h0c.07-.02.14-.05.2-.09l28.78-15.82,28.84,15.85s.06.02.09.03c.02,0,.04.02.06.02h.16c.14,0,.27-.05.37-.12l28.76-15.8,28.84,15.85s.06.02.09.03c.02,0,.04.02.06.02.05,0,.11.02.16.02h0s.11,0,.16-.02c.02,0,.04-.02.06-.02.03,0,.06-.02.09-.03l28.84-15.85,28.84,15.85s.06.02.09.03c.02,0,.04.02.06.02.05,0,.11.02.16.02h0s.11,0,.16-.02c.02,0,.04-.02.06-.02.03,0,.06-.02.09-.03l29.14-16.02s.01,0,.02-.02c.02,0,.04-.02.05-.04.02,0,.03-.02.05-.04.01,0,.03-.03.04-.04.01-.02.03-.03.04-.05s.02-.03.03-.05.02-.03.03-.05c0-.02.02-.04.02-.06s.01-.04.02-.06c0-.02,0-.04.01-.06v-51.84c.07-.16.07-.35-.01-.52-.03-.2-.14-.38-.32-.47l-.13.03ZM429.72,132.52l-27.98,15.38-28.03-15.41,27.98-15.38,28.03,15.41ZM344.08,64.56l27.83-15.3v27.75c0,.35.28.63.63.63s.63-.28.63-.63v-27.75l27.88,15.32v13.76l-28.51,15.67-28.46-15.64v-13.81ZM110.9,64.59l28.51-15.67,28.51,15.67v24.87l-28.21-15.5c-.2-.11-.43-.1-.63,0s-.31.32-.31.54v31.72l-27.88-15.32v-26.32h.01ZM138.77,183.52l-28.21-15.5c-.31-.17-.69-.06-.86.25s-.06.69.25.86l28.14,15.46-27.83,15.3-28.51-15.67v-51.43l28.51-15.67,28.51,15.67v50.74h0ZM110.9,116.02v-23.67l28.21,15.5c.09.05.2.08.3.08.11,0,.22-.03.32-.09.19-.11.31-.32.31-.54v-31.72l27.88,15.32v25.12l-28.51,15.67-28.51-15.67h0ZM197.06,157.09l-28.51,15.67-12.8-7.03c-.31-.17-.69-.06-.86.25s-.06.69.25.86l13.1,7.2s.06.02.09.03c.02,0,.04.02.06.02.05,0,.11.02.16.02h0c.05,0,.11,0,.16-.02.02,0,.04,0,.05-.02.03,0,.06-.02.09-.04l28.21-15.5v25.68l-28.51,15.67-28.51-15.67v-51.43l28.51-15.67,28.51,15.67v24.31ZM169.18,116.02v-25.12l28.51-15.67,9.39,5.16c.1.05.2.08.3.08.22,0,.44-.12.55-.33.17-.31.06-.69-.25-.86l-9.69-5.33h0l-.06-.03s-.04-.02-.06-.02h-.04s-.06-.01-.08-.02h-.16s-.06,0-.09.02c0,0-.02,0-.03.01-.03.01-.06.02-.09.04h0l-28.21,15.5v-24.87l28.51-15.67,28.51,15.67v51.43l-28.51,15.67-28.51-15.67h0ZM255.34,155.15h-19.2c-.35,0-.63.28-.63.63s.28.63.63.63h19.2v27.8l-27.87,15.32v-34.13c0-.35-.28-.63-.63-.63s-.63.28-.63.63v34.14l-27.89-15.33v-51.43l28.51-15.67,28.51,15.67v22.37h0ZM246.66,126.57v-35.4c0-.35-.28-.63-.63-.63s-.63.28-.63.63v34.71l-17.93-9.86v-51.43l28.51-15.67,6.52,3.59v38.38c0,.35.28.63.63.63s.63-.28.63-.63v-37.69l20.72,11.39v25.5h0v25.93l-28.51,15.67-9.31-5.12h0ZM313.63,155.15h-19.24c-.35,0-.63.28-.63.63s.28.63.63.63h19.24v27.8l-27.86,15.32v-34.13c0-.35-.28-.63-.63-.63s-.63.28-.63.63v34.14l-27.89-15.33v-51.43l28.51-15.67,28.51,15.67v22.37h-.01ZM285.75,116.02v-25.3h29.23v12.91s0,.04.01.06c0,.02.01.04.02.06,0,.02.02.04.03.06,0,0,0,.02.01.03h.01c.03.05.05.09.09.13h0s.08.06.12.09c.01,0,.03.01.04.02.03.02.07.03.1.04.01,0,.03,0,.04.01.05.01.09.02.14.02h0s.09,0,.13-.02c.01,0,.03,0,.04-.01.04-.01.07-.02.1-.04h.02l22.74-12.68h0s.02-.01.02-.02c.04-.02.07-.05.1-.08.01-.01.02-.02.03-.03.03-.03.06-.07.08-.11h.01s.02-.06.03-.08c0-.01.01-.03.02-.04,0-.02,0-.04.01-.06,0-.02,0-.04.01-.06v-.17s0-.05-.01-.07c0-.01-.01-.03-.02-.04,0-.03-.02-.05-.03-.08h0s-.01-.02-.02-.03c-.01-.02-.03-.05-.05-.07-.01-.01-.02-.02-.04-.04-.02-.02-.03-.03-.05-.05-.02-.01-.03-.02-.05-.03-.02,0-.03-.02-.04-.03l-22.74-12.32s-.02,0-.03-.01c-.02,0-.04-.02-.06-.03-.02,0-.04-.01-.06-.02-.02,0-.04,0-.06-.01h-.18s-.04,0-.06.01c-.02,0-.04.01-.05.02-.02,0-.04.02-.06.02s-.03.02-.05.03-.04.02-.05.03c-.02.01-.03.02-.05.04-.02.01-.03.03-.05.04-.01.01-.02.03-.04.04-.01.02-.03.04-.04.06,0,0-.01.01-.02.02,0,0,0,.02-.01.03-.01.02-.02.04-.03.06,0,.02-.01.04-.02.06,0,.02,0,.04-.01.06v11.03h-29.23v-24.86l28.55-15.41,28.51,15.67v13.64c-.06.15-.06.32,0,.46v37.1l-28.56,15.64-28.51-15.67.04-.02ZM316.24,102.45v-22.86l20.8,11.26-20.8,11.6ZM371.91,184.21l-28.51,15.67-28.51-15.67v-51.43l28.56-15.64,28.46,15.64v51.43h0ZM372.54,131.69l-28.46-15.64v-36.23l27.83,15.3v23.8c0,.35.28.63.63.63s.63-.28.63-.63v-23.8l27.88-15.32v36.23l-28.51,15.67h0ZM430.2,183.29l-18.03-9.91v-17.83c0-.35-.28-.63-.63-.63s-.63.28-.63.63v18.27s0,.06.02.09v.03s.02.06.03.08c0,0,.01.02.02.03.01.03.03.05.05.07,0,0,.02.02.03.03.02.02.04.04.06.06.01,0,.02.02.03.03.02.02.04.03.06.04,0,0,.01,0,.02,0l18.49,10.16-28.04,15.41-28.04-15.41,18.49-10.16s.01,0,.02-.02c.02,0,.04-.03.06-.04.01,0,.03-.02.04-.04.02-.02.03-.03.05-.05.01,0,.02-.03.03-.04.01-.02.03-.04.04-.06,0,0,.02-.03.02-.04.01-.02.02-.05.03-.07,0,0,0-.03.01-.04,0-.02.01-.05.01-.07v-18.28c0-.35-.28-.63-.63-.63s-.63.28-.63.63v17.83l-18.03,9.91v-49.65l28.26,15.53s.06.02.09.03c.02,0,.04.02.06.02.05,0,.11.02.16.02h0s.11,0,.16-.02c.02,0,.04-.02.06-.02.03,0,.06-.02.09-.03l28.15-15.47v49.6h.02Z"/>
        <path d="M117.62,156.75c.35,0,.63-.28.63-.63v-23.71c0-.35-.28-.63-.63-.63s-.63.28-.63.63v23.71c0,.35.28.63.63.63Z"/>
        <path d="M167.92,132.41v23.71c0,.35.28.63.63.63s.63-.28.63-.63v-23.71c0-.35-.28-.63-.63-.63s-.63.28-.63.63Z"/>
        <path d="M285.47,65.17l29.66,13.83c.44.2.91.11,1.06-.2s-.09-.74-.52-.94l-29.66-13.83c-.44-.2-.91-.11-1.06.2s.09.74.52.94Z"/>
        <path d="M226.21,128.2v23.71c0,.35.28.63.63.63s.63-.28.63-.63v-23.71c0-.35-.28-.63-.63-.63s-.63.28-.63.63h0Z"/>
        <path d="M197.69,92.8c-.35,0-.63.28-.63.63v23.71c0,.35.28.63.63.63s.63-.28.63-.63v-23.71c0-.35-.28-.63-.63-.63Z"/>
        <path d="M284.46,128.2v23.71c0,.35.28.63.63.63s.63-.28.63-.63v-23.71c0-.35-.28-.63-.63-.63s-.63.28-.63.63h0Z"/>
        <path d="M342.77,132.41v47.54c0,.35.28.63.63.63s.63-.28.63-.63v-47.54c0-.35-.28-.63-.63-.63s-.63.28-.63.63Z"/>
      </g>
    </g>
  </g>
</svg>